<?xml version="1.0" encoding="utf-8"?><!DOCTYPE svg PUBLIC "-//W3C//DTD SVG 1.1//EN" "http://www.w3.org/Graphics/SVG/1.1/DTD/svg11.dtd"><svg version="1.1" xmlns="http://www.w3.org/2000/svg" xmlns:xlink="http://www.w3.org/1999/xlink" width="1024" height="1024" viewBox="0 0 1024 1024"><path d="M515.445 54.179c-202.818 0-367.183 164.365-367.183 367.183 0 121.072 58.393 228.452 148.751 295.335l31.411-61.739c-68.39-54.869-112.285-139.16-112.285-233.596 0-165.217 134.089-299.306 299.306-299.306s298.945 134.089 298.945 299.306c0 93.223-42.611 176.523-109.397 231.43l32.855 61.017c88.111-67.066 144.779-173.148 144.779-292.446 0-202.818-164.365-367.183-367.183-367.183zM515.445 194.265c-125.337 0-227.097 101.76-227.097 227.097 0 66.353 28.575 125.987 74.014 167.525l33.938-66.071c-23.324-27.355-37.549-62.653-37.549-101.454 0-86.596 70.097-156.694 156.694-156.694s156.694 70.097 156.694 156.694c0 38.618-14.060 73.791-37.188 101.093l35.021 64.988c44.397-41.469 72.209-100.523 72.209-166.081 0-125.337-101.399-227.097-226.736-227.097zM516.527 335.433c-45.968 0-83.401 37.433-83.401 83.401 0 32.188 18.393 60.167 45.131 74.014l-239.012 474.774 545.539 1.444-225.292-478.746c24.187-14.561 40.076-41.198 40.076-71.487 0-45.968-37.072-83.401-83.040-83.401z"></path></svg>