<?xml version="1.0" encoding="utf-8"?><!DOCTYPE svg PUBLIC "-//W3C//DTD SVG 1.1//EN" "http://www.w3.org/Graphics/SVG/1.1/DTD/svg11.dtd"><svg version="1.1" xmlns="http://www.w3.org/2000/svg" xmlns:xlink="http://www.w3.org/1999/xlink" width="1024" height="1024" viewBox="0 0 1024 1024"><path d="M435.429 658.286h-179.429q-22.857 0-32.857-20t3.714-38.286l107.429-143.429q-37.143-17.714-78.286-17.714-75.429 0-129.143 53.714t-53.714 129.143 53.714 129.143 129.143 53.714q65.714 0 116-41.429t63.429-104.857zM329.143 585.143h106.286q-10.286-48.571-42.857-84.571zM603.429 585.143l164.571-219.429h-274.286l-56.571 75.429q60 58.857 72 144h94.286zM1243.429 621.714q0-75.429-53.714-129.143t-129.143-53.714q-34.286 0-69.143 13.714l99.429 148.571q8.571 13.143 5.714 28t-15.429 22.857q-8.571 6.286-20.571 6.286-20 0-30.286-16.571l-99.429-148.571q-53.143 54.286-53.143 128.571 0 75.429 53.714 129.143t129.143 53.714 129.143-53.714 53.714-129.143zM1316.571 621.714q0 105.714-75.143 180.857t-180.857 75.143-180.857-75.143-75.143-180.857q0-55.429 22.571-104.857t62.571-85.429l-37.143-56-201.714 268q-10.286 14.857-29.143 14.857h-112.571q-13.143 93.714-85.143 156.571t-168 62.857q-105.714 0-180.857-75.143t-75.143-180.857 75.143-180.857 180.857-75.143q65.143 0 122.857 31.429l78.286-104.571h-128q-14.857 0-25.714-10.857t-10.857-25.714 10.857-25.714 25.714-10.857h219.429v73.143h248.571l-48.571-73.143h-126.857q-14.857 0-25.714-10.857t-10.857-25.714 10.857-25.714 25.714-10.857h146.286q18.857 0 30.286 16l152.571 228.571q52-25.143 109.714-25.143 105.714 0 180.857 75.143t75.143 180.857z"></path></svg>