<?xml version="1.0" encoding="utf-8"?>
<!-- Generated by IcoMoon.io -->
<!DOCTYPE svg PUBLIC "-//W3C//DTD SVG 1.1//EN" "http://www.w3.org/Graphics/SVG/1.1/DTD/svg11.dtd">
<svg version="1.1" xmlns="http://www.w3.org/2000/svg" xmlns:xlink="http://www.w3.org/1999/xlink" width="416" height="448" viewBox="0 0 416 448"><g id="icomoon-ignore">
</g>
<path d="M364 304q0-10-7-17l-52-52q-7-7-17-7-10.5 0-18 8 0.75 0.75 4.75 4.625t5.375 5.375 3.75 4.75 3.25 6.375 0.875 6.875q0 10-7 17t-17 7q-3.75 0-6.875-0.875t-6.375-3.25-4.75-3.75-5.375-5.375-4.625-4.75q-8.25 7.75-8.25 18.25 0 10 7 17l51.5 51.75q6.75 6.75 17 6.75 10 0 17-6.5l36.75-36.5q7-7 7-16.75zM188.25 127.75q0-10-7-17l-51.5-51.75q-7-7-17-7-9.75 0-17 6.75l-36.75 36.5q-7 7-7 16.75 0 10 7 17l52 52q6.75 6.75 17 6.75 10.5 0 18-7.75-0.75-0.75-4.75-4.625t-5.375-5.375-3.75-4.75-3.25-6.375-0.875-6.875q0-10 7-17t17-7q3.75 0 6.875 0.875t6.375 3.25 4.75 3.75 5.375 5.375 4.625 4.75q8.25-7.75 8.25-18.25zM412 304q0 30-21.25 50.75l-36.75 36.5q-20.75 20.75-50.75 20.75-30.25 0-51-21.25l-51.5-51.75q-20.75-20.75-20.75-50.75 0-30.75 22-52.25l-22-22q-21.5 22-52 22-30 0-51-21l-52-52q-21-21-21-51t21.25-50.75l36.75-36.5q20.75-20.75 50.75-20.75 30.25 0 51 21.25l51.5 51.75q20.75 20.75 20.75 50.75 0 30.75-22 52.25l22 22q21.5-22 52-22 30 0 51 21l52 52q21 21 21 51z"></path>
</svg>
