<?xml version="1.0" encoding="utf-8"?><!DOCTYPE svg PUBLIC "-//W3C//DTD SVG 1.1//EN" "http://www.w3.org/Graphics/SVG/1.1/DTD/svg11.dtd"><svg version="1.1" xmlns="http://www.w3.org/2000/svg" xmlns:xlink="http://www.w3.org/1999/xlink" width="1024" height="1024" viewBox="0 0 1024 1024"><path d="M733.714 419.429q0-16-10.286-26.286l-52-51.429q-10.857-10.857-25.714-10.857t-25.714 10.857l-233.143 232.571-129.143-129.143q-10.857-10.857-25.714-10.857t-25.714 10.857l-52 51.429q-10.286 10.286-10.286 26.286 0 15.429 10.286 25.714l206.857 206.857q10.857 10.857 25.714 10.857 15.429 0 26.286-10.857l310.286-310.286q10.286-10.286 10.286-25.714zM877.714 512q0 119.429-58.857 220.286t-159.714 159.714-220.286 58.857-220.286-58.857-159.714-159.714-58.857-220.286 58.857-220.286 159.714-159.714 220.286-58.857 220.286 58.857 159.714 159.714 58.857 220.286z"></path></svg>