<?xml version="1.0" encoding="utf-8"?>
<!-- Generated by IcoMoon.io -->
<!DOCTYPE svg PUBLIC "-//W3C//DTD SVG 1.1//EN" "http://www.w3.org/Graphics/SVG/1.1/DTD/svg11.dtd">
<svg version="1.1" xmlns="http://www.w3.org/2000/svg" xmlns:xlink="http://www.w3.org/1999/xlink" width="448" height="448" viewBox="0 0 448 448"><g id="icomoon-ignore">
</g>
<path d="M256 224q0-26.5-18.75-45.25t-45.25-18.75-45.25 18.75-18.75 45.25 18.75 45.25 45.25 18.75 45.25-18.75 18.75-45.25zM384 196.75v55.5q0 3-2 5.75t-5 3.25l-46.25 7q-4.75 13.5-9.75 22.75 8.75 12.5 26.75 34.5 2.5 3 2.5 6.25t-2.25 5.75q-6.75 9.25-24.75 27t-23.5 17.75q-3 0-6.5-2.25l-34.5-27q-11 5.75-22.75 9.5-4 34-7.25 46.5-1.75 7-9 7h-55.5q-3.5 0-6.125-2.125t-2.875-5.375l-7-46q-12.25-4-22.5-9.25l-35.25 26.75q-2.5 2.25-6.25 2.25-3.5 0-6.25-2.75-31.5-28.5-41.25-42-1.75-2.5-1.75-5.75 0-3 2-5.75 3.75-5.25 12.75-16.625t13.5-17.625q-6.75-12.5-10.25-24.75l-45.75-6.75q-3.25-0.5-5.25-3.125t-2-5.875v-55.5q0-3 2-5.75t4.75-3.25l46.5-7q3.5-11.5 9.75-23-10-14.25-26.75-34.5-2.5-3-2.5-6 0-2.5 2.25-5.75 6.5-9 24.625-26.875t23.625-17.875q3.25 0 6.5 2.5l34.5 26.75q11-5.75 22.75-9.5 4-34 7.25-46.5 1.75-7 9-7h55.5q3.5 0 6.125 2.125t2.875 5.375l7 46q12.25 4 22.5 9.25l35.5-26.75q2.25-2.25 6-2.25 3.25 0 6.25 2.5 32.25 29.75 41.25 42.5 1.75 2 1.75 5.5 0 3-2 5.75-3.75 5.25-12.75 16.625t-13.5 17.625q6.5 12.5 10.25 24.5l45.75 7q3.25 0.5 5.25 3.125t2 5.875z"></path>
</svg>
