<?xml version="1.0" encoding="utf-8"?><!DOCTYPE svg PUBLIC "-//W3C//DTD SVG 1.1//EN" "http://www.w3.org/Graphics/SVG/1.1/DTD/svg11.dtd"><svg version="1.1" xmlns="http://www.w3.org/2000/svg" xmlns:xlink="http://www.w3.org/1999/xlink" width="1024" height="1024" viewBox="0 0 1024 1024"><path d="M317.143 762.857l44.571-80.571q-49.714-36-77.714-90.857t-28-116q0-69.143 34.857-128.571-130.857 66.857-217.714 201.714 95.429 147.429 244 214.286zM539.429 329.143q0-11.429-8-19.429t-19.429-8q-71.429 0-122.571 51.143t-51.143 122.571q0 11.429 8 19.429t19.429 8 19.429-8 8-19.429q0-49.143 34.857-84t84-34.857q11.429 0 19.429-8t8-19.429zM746.857 220q0 4-0.571 5.143-60 107.429-180 323.429t-180.571 324l-28 50.857q-5.714 9.143-16 9.143-6.857 0-76.571-40-9.143-5.714-9.143-16 0-6.857 25.143-49.714-81.714-37.143-150.571-98.857t-119.143-140q-11.429-17.714-11.429-39.429t11.429-39.429q87.429-134.286 217.143-212t283.429-77.714q50.857 0 102.857 9.714l30.857-55.429q5.714-9.143 16-9.143 2.857 0 10.286 3.429t17.714 8.857 18.857 10.571 18 10.571 11.143 6.571q9.143 5.714 9.143 15.429zM768 475.429q0 79.429-45.143 144.857t-119.429 94l160-286.857q4.571 25.714 4.571 48zM1024 548.571q0 20-11.429 39.429-22.286 36.571-62.286 82.857-85.714 98.286-198.571 152.571t-239.714 54.286l42.286-75.429q121.143-10.286 224.286-78.286t172.286-175.429q-65.714-102.286-161.143-168l36-64q54.286 36.571 104.286 87.429t82.571 105.143q11.429 19.429 11.429 39.429z"></path></svg>