<?xml version="1.0" encoding="utf-8"?><!DOCTYPE svg PUBLIC "-//W3C//DTD SVG 1.1//EN" "http://www.w3.org/Graphics/SVG/1.1/DTD/svg11.dtd"><svg version="1.1" xmlns="http://www.w3.org/2000/svg" xmlns:xlink="http://www.w3.org/1999/xlink" width="1024" height="1024" viewBox="0 0 1024 1024"><path d="M950.857 548.571q-86.857-134.857-217.714-201.714 34.857 59.429 34.857 128.571 0 105.714-75.143 180.857t-180.857 75.143-180.857-75.143-75.143-180.857q0-69.143 34.857-128.571-130.857 66.857-217.714 201.714 76 117.143 190.571 186.571t248.286 69.429 248.286-69.429 190.571-186.571zM539.429 329.143q0-11.429-8-19.429t-19.429-8q-71.429 0-122.571 51.143t-51.143 122.571q0 11.429 8 19.429t19.429 8 19.429-8 8-19.429q0-49.143 34.857-84t84-34.857q11.429 0 19.429-8t8-19.429zM1024 548.571q0 19.429-11.429 39.429-80 131.429-215.143 210.571t-285.429 79.143-285.429-79.429-215.143-210.286q-11.429-20-11.429-39.429t11.429-39.429q80-130.857 215.143-210.286t285.429-79.429 285.429 79.429 215.143 210.286q11.429 20 11.429 39.429z"></path></svg>