<?xml version="1.0" encoding="utf-8"?><!DOCTYPE svg PUBLIC "-//W3C//DTD SVG 1.1//EN" "http://www.w3.org/Graphics/SVG/1.1/DTD/svg11.dtd"><svg version="1.1" xmlns="http://www.w3.org/2000/svg" xmlns:xlink="http://www.w3.org/1999/xlink" width="1024" height="1024" viewBox="0 0 1024 1024"><path d="M73.143 804.571h585.143v-73.143h-585.143v73.143zM73.143 512h585.143v-73.143h-585.143v73.143zM969.143 768q0-22.857-16-38.857t-38.857-16-38.857 16-16 38.857 16 38.857 38.857 16 38.857-16 16-38.857zM73.143 219.429h585.143v-73.143h-585.143v73.143zM969.143 475.429q0-22.857-16-38.857t-38.857-16-38.857 16-16 38.857 16 38.857 38.857 16 38.857-16 16-38.857zM969.143 182.857q0-22.857-16-38.857t-38.857-16-38.857 16-16 38.857 16 38.857 38.857 16 38.857-16 16-38.857zM1024 658.286v219.429h-1024v-219.429h1024zM1024 365.714v219.429h-1024v-219.429h1024zM1024 73.143v219.429h-1024v-219.429h1024z"></path></svg>