<?xml version="1.0" encoding="utf-8"?>
<!-- Generated by IcoMoon.io -->
<!DOCTYPE svg PUBLIC "-//W3C//DTD SVG 1.1//EN" "http://www.w3.org/Graphics/SVG/1.1/DTD/svg11.dtd">
<svg version="1.1" xmlns="http://www.w3.org/2000/svg" xmlns:xlink="http://www.w3.org/1999/xlink" width="448" height="448" viewBox="0 0 448 448"><g id="icomoon-ignore">
</g>
<path d="M88 352v32h-88v-32h88zM176 320q6.5 0 11.25 4.75t4.75 11.25v64q0 6.5-4.75 11.25t-11.25 4.75h-64q-6.5 0-11.25-4.75t-4.75-11.25v-64q0-6.5 4.75-11.25t11.25-4.75h64zM216 224v32h-216v-32h216zM56 96v32h-56v-32h56zM384 352v32h-184v-32h184zM144 64q6.5 0 11.25 4.75t4.75 11.25v64q0 6.5-4.75 11.25t-11.25 4.75h-64q-6.5 0-11.25-4.75t-4.75-11.25v-64q0-6.5 4.75-11.25t11.25-4.75h64zM304 192q6.5 0 11.25 4.75t4.75 11.25v64q0 6.5-4.75 11.25t-11.25 4.75h-64q-6.5 0-11.25-4.75t-4.75-11.25v-64q0-6.5 4.75-11.25t11.25-4.75h64zM384 224v32h-56v-32h56zM384 96v32h-216v-32h216z"></path>
</svg>
