<?xml version="1.0" encoding="utf-8"?><!DOCTYPE svg PUBLIC "-//W3C//DTD SVG 1.1//EN" "http://www.w3.org/Graphics/SVG/1.1/DTD/svg11.dtd"><svg version="1.1" xmlns="http://www.w3.org/2000/svg" xmlns:xlink="http://www.w3.org/1999/xlink" width="1024" height="1024" viewBox="0 0 1024 1024"><path d="M656.571 641.143q0-14.857-10.857-25.714l-103.429-103.429 103.429-103.429q10.857-10.857 10.857-25.714 0-15.429-10.857-26.286l-51.429-51.429q-10.857-10.857-26.286-10.857-14.857 0-25.714 10.857l-103.429 103.429-103.429-103.429q-10.857-10.857-25.714-10.857-15.429 0-26.286 10.857l-51.429 51.429q-10.857 10.857-10.857 26.286 0 14.857 10.857 25.714l103.429 103.429-103.429 103.429q-10.857 10.857-10.857 25.714 0 15.429 10.857 26.286l51.429 51.429q10.857 10.857 26.286 10.857 14.857 0 25.714-10.857l103.429-103.429 103.429 103.429q10.857 10.857 25.714 10.857 15.429 0 26.286-10.857l51.429-51.429q10.857-10.857 10.857-26.286zM877.714 512q0 119.429-58.857 220.286t-159.714 159.714-220.286 58.857-220.286-58.857-159.714-159.714-58.857-220.286 58.857-220.286 159.714-159.714 220.286-58.857 220.286 58.857 159.714 159.714 58.857 220.286z"></path></svg>