<?xml version="1.0" encoding="utf-8"?><!DOCTYPE svg PUBLIC "-//W3C//DTD SVG 1.1//EN" "http://www.w3.org/Graphics/SVG/1.1/DTD/svg11.dtd"><svg version="1.1" xmlns="http://www.w3.org/2000/svg" xmlns:xlink="http://www.w3.org/1999/xlink" width="1024" height="1024" viewBox="0 0 1024 1024"><path d="M585.143 870.286q-11.429 0-53.143-42t-41.714-53.429q0-18.286 35.714-30.857t59.143-12.571 59.143 12.571 35.714 30.857q0 11.429-41.714 53.429t-53.143 42zM739.429 715.429q-1.143 0-22.857-14.286t-58-28.571-73.429-14.286-73.429 14.286-57.714 28.571-23.143 14.286q-10.286 0-53.429-42.857t-43.143-53.143q0-7.429 5.714-13.143 44.571-44 112-69.143t133.143-25.143 133.143 25.143 112 69.143q5.714 5.714 5.714 13.143 0 10.286-43.143 53.143t-53.429 42.857zM895.429 560q-6.286 0-13.143-4.571-77.714-60-144-88.286t-153.143-28.286q-48.571 0-97.429 12.571t-85.143 30.286-64.857 35.429-45.143 30.286-17.714 12.571q-9.714 0-52.571-42.857t-42.857-53.143q0-6.857 5.714-12.571 75.429-75.429 182.857-117.143t217.143-41.714 217.143 41.714 182.857 117.143q5.714 5.714 5.714 12.571 0 10.286-42.857 53.143t-52.571 42.857zM1050.286 405.143q-6.286 0-12.571-5.143-102.286-89.714-212.286-135.143t-240.286-45.429-240.286 45.429-212.286 135.143q-6.286 5.143-12.571 5.143-9.714 0-52.857-42.857t-43.143-53.143q0-7.429 5.714-13.143 106.857-106.286 254.286-164.571t301.143-58.286 301.143 58.286 254.286 164.571q5.714 5.714 5.714 13.143 0 10.286-43.143 53.143t-52.857 42.857z"></path></svg>