<?xml version="1.0" encoding="utf-8"?><!DOCTYPE svg PUBLIC "-//W3C//DTD SVG 1.1//EN" "http://www.w3.org/Graphics/SVG/1.1/DTD/svg11.dtd"><svg version="1.1" xmlns="http://www.w3.org/2000/svg" xmlns:xlink="http://www.w3.org/1999/xlink" width="1024" height="1024" viewBox="0 0 1024 1024"><path d="M585.143 73.143c-102.476 0-202.857 19.429-301.143 58.286s-183.048 93.714-254.286 164.571c-3.81 3.81-5.714 8.19-5.714 13.143 0 6.857 14.381 24.571 43.143 53.143 10.060 9.993 18.666 18.145 26 24.643l106.714 106.714c6.138 6.808 13.5 14.571 22.429 23.5 9.273 9.273 17.269 16.88 24.214 23.143l104.214 104.214c0.156 0.178 0.271 0.321 0.429 0.5 6.741 7.661 15.5 16.857 26.286 27.571 9.817 9.752 18.235 17.719 25.5 24.143l100.357 100.357c6.868 8.425 16.338 18.753 28.714 31.214 27.81 28 45.524 42 53.143 42s25.333-14 53.143-42c3.85-3.908 7.577-7.748 11.571-11.857l466.571-467.643c19.823-20.658 29.857-33.95 29.857-39.643 0-4.952-1.905-9.333-5.714-13.143-71.238-70.857-156-125.714-254.286-164.571s-198.667-58.286-301.143-58.286zM584.5 292.286c68.626 0 124.214 55.588 124.214 124.214s-55.588 124.286-124.214 124.286c-68.626 0-124.286-55.659-124.286-124.286s55.659-124.214 124.286-124.214z"></path></svg>