<?xml version="1.0" encoding="UTF-8" standalone="no"?>
<?xml-stylesheet href="skyline.css" type="text/css"?><svg
   xmlns:dc="http://purl.org/dc/elements/1.1/"
   xmlns:cc="http://creativecommons.org/ns#"
   xmlns:rdf="http://www.w3.org/1999/02/22-rdf-syntax-ns#"
   xmlns:svg="http://www.w3.org/2000/svg"
   xmlns="http://www.w3.org/2000/svg"
   xmlns:sodipodi="http://sodipodi.sourceforge.net/DTD/sodipodi-0.dtd"
   xmlns:inkscape="http://www.inkscape.org/namespaces/inkscape"
   width="740"
   height="52"
   viewBox="0 0 740 52"
   id="svg2"
   version="1.1"
   inkscape:version="0.48.4 r9939"
   sodipodi:docname="skyline.svg">
  <g
     inkscape:label="Layer 1"
     inkscape:groupmode="layer"
     id="layer1"
     transform="translate(-0.531242,-65.928411)">
    <path
       transform="matrix(1.0703125,0,0,1.0234375,-49.491812,61.043613)"
       style="opacity:0.2857143;fill:url(#radialGradient7631);fill-opacity:1;stroke:none"
       d="m 730.23645,53.339153 c 0,23.358464 -151.48621,42.294239 -338.35391,42.294239 -186.86771,0 -338.353915,-18.935775 -338.353915,-42.294239 0,-23.358463 151.486205,-42.294239 338.353915,-42.294239 186.8677,0 338.35391,18.935776 338.35391,42.294239 z"
       id="path7623" />
    <path
       d="m 211.7226,75.92847 -8.816,5.06367 0,1.318353 -2.68706,0 0,36.883897 -2.08323,0 0,-12.52434 -5.43452,0 0,-2.90637 -4.10608,2.36704 0,0.53933 -1.32843,0 0,12.52434 -3.95512,0 -7.09506,-4.04494 -7.06487,4.04494 -3.29092,0 0,-7.70037 -6.67237,0 0,7.70037 -0.7246,0 c -0.32449,-0.74315 -0.62648,-1.37718 -0.96614,-2.18727 0.37505,0.0786 1.14729,-0.0899 1.14729,-0.0899 0,0 -1.03696,-2.28012 -1.66055,-3.77528 0.26031,-0.009 0.54345,-0.0899 0.54345,-0.0899 0,0 -0.92385,-2.07967 -1.29824,-3.02622 -0.0129,-0.0326 -0.0163,-0.0841 -0.0302,-0.11985 -0.0249,-0.002 -0.0712,0.006 -0.0906,0 -0.0618,-0.0186 -0.12439,-0.0875 -0.21134,-0.14981 0.0871,0.062 0.14949,0.10119 0.21134,0.11985 0.0175,0.006 0.0685,0.0277 0.0906,0.0299 0.17344,0.0185 0.42269,-0.06 0.42269,-0.06 0,0 -0.57784,-1.31754 -0.81518,-1.91761 -0.23363,-0.5907 -0.75479,-2.03745 -0.75479,-2.03745 0,0 -0.49097,1.44678 -0.7246,2.03745 -0.23736,0.6 -0.84537,1.91761 -0.84537,1.91761 0,0 0.30962,0.0784 0.48307,0.06 0.0221,-0.002 0.0429,-0.0247 0.0604,-0.0299 0.0618,-0.0186 0.15445,-0.0578 0.24153,-0.11985 -0.087,0.0622 -0.17969,0.13115 -0.24153,0.14981 -0.0194,0.006 -0.0356,-0.002 -0.0604,0 -0.0138,0.0358 -0.0475,0.0872 -0.0604,0.11985 -0.37437,0.94653 -1.32844,3.02622 -1.32844,3.02622 0,0 0.31335,0.0817 0.57365,0.0899 -0.62354,1.49516 -1.66055,3.77528 -1.66055,3.77528 0,0 0.77223,0.16848 1.14729,0.0899 -0.33894,0.8084 -0.61195,1.44519 -0.93595,2.18727 l -0.54345,0 c 0.0584,-0.18197 0.0906,-0.36769 0.0906,-0.56929 0,-1.04717 -0.84691,-1.88764 -1.90208,-1.88764 -0.0342,0 -0.0568,-0.002 -0.0906,0 0.17801,-0.27859 0.27173,-0.60452 0.27173,-0.9588 0,-0.76387 -0.47102,-1.41598 -1.14729,-1.6779 0.003,-0.0443 0,-0.0746 0,-0.11985 0,-0.9948 -0.80909,-1.82772 -1.8115,-1.82772 -0.44519,0 -0.86172,0.18546 -1.17748,0.44944 -0.14121,-1.09558 -1.06165,-1.94757 -2.204,-1.94757 -1.23984,0 -2.23419,0.98682 -2.23419,2.21723 0,0.55519 0.20495,1.04812 0.54345,1.4382 -1.53263,0.25601 -2.68706,1.58224 -2.68706,3.17603 0,0.62765 0.16979,1.21268 0.48306,1.70787 l -7.42717,0 0,-18.09738 -14.79396,0 0,18.09738 -4.64953,0 0,-23.370788 -20.107714,0 0,23.370788 -8.24235,0 c 0.05864,-0.24266 0.120767,-0.48729 0.120767,-0.74907 0,-1.59379 -1.154429,-2.92001 -2.687067,-3.17602 0.338499,-0.39009 0.543452,-0.88302 0.543452,-1.43821 0,-1.17352 -0.923412,-2.1312 -2.083232,-2.21722 -0.235113,-0.6645 -0.850243,-1.13858 -1.600163,-1.13858 -0.949656,0 -1.720929,0.76542 -1.720929,1.70786 0,0.39529 0.134986,0.72944 0.362301,1.01873 -0.187605,-0.0667 -0.394315,-0.0899 -0.603835,-0.0899 -1.002415,0 -1.811506,0.80296 -1.811506,1.79776 0,0.0452 -0.0032,0.10548 0,0.14981 -0.676278,0.26192 -1.147287,0.91403 -1.147287,1.6779 0,0.35429 0.12392,0.65026 0.301917,0.92884 -0.03371,-0.002 -0.08663,0 -0.120767,0 -0.923279,0 -1.694651,0.66499 -1.871889,1.52809 l -7.155447,0 0,-2.03745 2.234191,0 -6.219503,-3.53558 -3.95512,0 -4.800489,-2.75656 -11.110568,6.35206 2.143615,0 0,1.97753 -3.985312,0 c 0.0718,-0.21421 0.120767,-0.42267 0.120767,-0.65918 0,-0.43105 -0.141788,-0.83232 -0.362301,-1.16854 0.213308,-0.29629 0.362301,-0.65678 0.362301,-1.04869 0,-0.63262 -0.319727,-1.17453 -0.815178,-1.49812 -0.05088,-0.11939 -0.106829,-0.25489 -0.18115,-0.35955 0.03449,-0.13904 0.06038,-0.26987 0.06038,-0.41948 0,-0.99961 -0.834433,-1.79775 -1.841696,-1.79775 -1.007264,0 -1.811506,0.79814 -1.811506,1.79775 0,0.0113 -2.07e-4,0.0187 0,0.0299 -0.513425,0.1821 -0.933609,0.5991 -1.117095,1.10862 -0.01149,-2.3e-4 -0.01865,0 -0.03019,0 -0.932651,0 -1.690739,0.75233 -1.690739,1.6779 0,0.31488 0.119532,0.58728 0.271726,0.83895 -0.570629,0.37193 -0.935944,0.88719 -0.935944,1.4382 0,0.0206 -9.99e-4,0.0394 0,0.06 l -1.962464,0 c -0.343443,-0.77601 -0.676837,-1.60504 -0.996329,-2.36704 0.375055,0.0786 1.117096,-0.0899 1.117096,-0.0899 0,0 -1.036953,-2.28012 -1.660547,-3.77528 0.26031,-0.009 0.573643,-0.0899 0.573643,-0.0899 0,0 -0.954038,-2.10962 -1.328437,-3.05618 -0.01284,-0.0326 -0.01628,-0.0542 -0.03019,-0.0899 0.17344,0.0185 0.452876,-0.06 0.452876,-0.06 0,0 -0.608023,-1.31753 -0.845369,-1.9176 -0.233632,-0.59071 -0.724602,-2.03745 -0.724602,-2.03745 0,0 -0.49097,1.44677 -0.724602,2.03745 -0.237356,0.59999 -0.84537,1.9176 -0.84537,1.9176 0,0 0.279432,0.0784 0.452876,0.06 -0.01385,0.0358 -0.01729,0.0573 -0.03019,0.0899 -0.37438,0.94654 -1.328437,3.05618 -1.328437,3.05618 0,0 0.313333,0.0817 0.573643,0.0899 -0.623546,1.4952 -1.660546,3.77528 -1.660546,3.77528 0,0 0.742048,0.16849 1.117094,0.0899 -0.23209,0.55356 -0.488803,1.15623 -0.754793,1.76779 l -5.676051,-3.47566 -6.8837214,4.07491 -9.1782941,0 0,3.56554 -0.0603835,0.0299 0.0603835,0 0,1.13858 739.9396145,0 0,-4.73408 -13.10322,0 -6.85354,-4.07491 -5.70624,3.47566 c -0.26598,-0.61156 -0.5227,-1.21423 -0.75479,-1.76779 0.37504,0.0786 1.14728,-0.0899 1.14728,-0.0899 0,0 -1.03698,-2.28008 -1.66054,-3.77528 0.26032,-0.008 0.54345,-0.0899 0.54345,-0.0899 0,0 -0.95406,-2.10964 -1.32844,-3.05618 -0.0129,-0.0326 -0.0164,-0.0541 -0.0302,-0.0899 0.17344,0.0185 0.45288,-0.06 0.45288,-0.06 0,0 -0.60801,-1.31761 -0.84537,-1.9176 -0.23363,-0.59068 -0.7246,-2.03745 -0.7246,-2.03745 0,0 -0.49097,1.44674 -0.72461,2.03745 -0.23734,0.60007 -0.84536,1.9176 -0.84536,1.9176 0,0 0.30962,0.0784 0.48306,0.06 -0.0139,0.0357 -0.0475,0.0573 -0.0604,0.0899 -0.3744,0.94656 -1.32844,3.05618 -1.32844,3.05618 0,0 0.31334,0.0813 0.57365,0.0899 -0.6236,1.49516 -1.66055,3.77528 -1.66055,3.77528 0,0 0.77223,0.16851 1.14729,0.0899 -0.31983,0.76282 -0.68278,1.59034 -1.02652,2.36704 l -1.93227,0 c 9.6e-4,-0.0199 0,-0.0399 0,-0.06 0,-0.55101 -0.36531,-1.06627 -0.93595,-1.4382 0.1522,-0.25167 0.24153,-0.52407 0.24153,-0.83895 0,-0.92557 -0.75807,-1.6779 -1.69073,-1.6779 -0.0115,0 -0.0187,-2.3e-4 -0.0302,0 -0.18348,-0.50952 -0.57349,-0.92652 -1.08691,-1.10862 2.1e-4,-0.0112 0,-0.0186 0,-0.0299 0,-0.99961 -0.83443,-1.79775 -1.84169,-1.79775 -1.00727,0 -1.81151,0.79814 -1.81151,1.79775 0,0.14961 -0.004,0.28044 0.0302,0.41948 -0.0743,0.10466 -0.13023,0.24016 -0.18115,0.35955 -0.49545,0.32359 -0.81518,0.8655 -0.81518,1.49812 0,0.39191 0.149,0.7524 0.36231,1.04869 -0.22052,0.33622 -0.36231,0.73749 -0.36231,1.16854 0,0.23521 0.0497,0.44599 0.12077,0.65918 l -3.98531,0 0,-1.97753 2.14361,0 -11.11056,-6.35206 -4.8005,2.75656 -3.95512,0 -6.2195,3.53558 2.23419,0 0,2.03745 -14.34108,0 c -0.17724,-0.8631 -0.94861,-1.52809 -1.87189,-1.52809 -0.0341,0 -0.0568,-0.002 -0.0906,0 0.17799,-0.27858 0.27172,-0.57455 0.27172,-0.92884 0,-0.76387 -0.471,-1.41598 -1.14728,-1.6779 0.003,-0.0443 0,-0.10466 0,-0.14981 0,-0.9948 -0.8091,-1.79776 -1.81151,-1.79776 -0.20952,0 -0.41623,0.0232 -0.60383,0.0899 0.22732,-0.28929 0.3623,-0.62344 0.3623,-1.01873 0,-0.94244 -0.77129,-1.70786 -1.72093,-1.70786 -0.74992,0 -1.36506,0.47408 -1.60017,1.13858 -1.15983,0.086 -2.08324,1.0437 -2.08324,2.21722 0,0.55519 0.23516,1.04812 0.57366,1.43821 -1.53265,0.25601 -2.71727,1.58223 -2.71727,3.17603 0,0.26177 0.0621,0.5064 0.12077,0.74906 l -8.24235,0 0,-23.370788 -20.10771,0 0,23.370788 -4.64953,0 0,-12.28464 -14.79396,0 0,12.28464 -7.42717,0 c 0.31327,-0.49519 0.51325,-1.08022 0.51325,-1.70787 0,-1.59379 -1.18462,-2.92002 -2.71725,-3.17603 0.33849,-0.39008 0.57364,-0.88301 0.57364,-1.4382 0,-1.23041 -1.02455,-2.21723 -2.26438,-2.21723 -1.14235,0 -2.06279,0.85199 -2.204,1.94757 -0.31576,-0.26398 -0.73229,-0.44944 -1.17748,-0.44944 -1.00242,0 -1.8115,0.83292 -1.8115,1.82772 0,0.0452 -0.003,0.0755 0,0.11985 -0.67629,0.26192 -1.14729,0.91403 -1.14729,1.6779 0,0.35428 0.0937,0.68021 0.27173,0.9588 -0.0338,-0.002 -0.0565,0 -0.0906,0 -1.05518,0 -1.90208,0.84047 -1.90208,1.88764 0,0.2016 0.0322,0.38732 0.0906,0.56929 l -0.54345,0 c -0.32401,-0.74208 -0.59701,-1.37887 -0.93595,-2.18727 0.37506,0.0786 1.14729,-0.0899 1.14729,-0.0899 0,0 -1.03701,-2.28012 -1.66055,-3.77528 0.2603,-0.008 0.57364,-0.0899 0.57364,-0.0899 0,0 -0.95406,-2.07969 -1.32843,-3.02622 -0.0129,-0.0326 -0.0465,-0.0841 -0.0604,-0.11985 -0.0249,-0.002 -0.0409,0.006 -0.0604,0 -0.0618,-0.0186 -0.15458,-0.0876 -0.24153,-0.14981 0.0871,0.062 0.17969,0.10124 0.24153,0.11985 0.0175,0.005 0.0384,0.028 0.0604,0.0299 0.17344,0.0185 0.48307,-0.06 0.48307,-0.06 0,0 -0.60801,-1.31761 -0.84537,-1.91761 -0.23363,-0.59067 -0.7246,-2.03745 -0.7246,-2.03745 0,0 -0.52116,1.44675 -0.75479,2.03745 -0.23735,0.60007 -0.81519,1.91761 -0.81519,1.91761 0,0 0.27944,0.0784 0.45288,0.06 0.0221,-0.002 0.0429,-0.0242 0.0604,-0.0299 0.0618,-0.0186 0.15449,-0.0578 0.24154,-0.11985 -0.087,0.0622 -0.1797,0.13121 -0.24154,0.14981 -0.0193,0.006 -0.0356,-0.002 -0.0604,0 -0.0139,0.0358 -0.0174,0.0872 -0.0302,0.11985 -0.37439,0.94655 -1.32843,3.02622 -1.32843,3.02622 0,0 0.28315,0.0813 0.54345,0.0899 -0.62359,1.49516 -1.66055,3.77528 -1.66055,3.77528 0,0 0.77224,0.1685 1.14729,0.0899 -0.33893,0.8084 -0.61194,1.44519 -0.93594,2.18727 l -0.72461,0 0,-17.64794 -6.70257,0 0,17.64794 -2.1738,0 -8.18197,-7.91011 -7.60832,7.91011 -3.44186,0 0,-12.52434 -1.29824,0 0,-0.53933 -4.13627,-2.36704 0,2.90637 -5.43453,0 0,12.52434 -2.08323,0 0,-36.883897 -2.68706,0 0,-1.318353 -8.81599,-5.06367 0,6.382023 -2.50592,0 0,-1.378278 -4.13627,-2.36704 0,3.745318 -7.6687,0 0,36.883897 -5.73645,0 c -0.33685,-0.76216 -0.48028,-1.07103 -0.78498,-1.79775 0.35074,0.0735 1.05671,-0.06 1.05671,-0.06 0,0 -0.95665,-2.1673 -1.53978,-3.56554 0.24344,-0.008 0.51326,-0.06 0.51326,-0.06 0,0 -0.88775,-1.96127 -1.23786,-2.84644 -0.0121,-0.0305 -0.0173,-0.0865 -0.0302,-0.11985 0.1629,0.0147 0.42268,-0.0299 0.42268,-0.0299 0,0 -0.56302,-1.26661 -0.78498,-1.82771 -0.21848,-0.5524 -0.69441,-1.88765 -0.69441,-1.88765 0,0 -0.44574,1.33523 -0.66422,1.88765 -0.22195,0.56117 -0.78499,1.82771 -0.78499,1.82771 0,0 0.25979,0.0446 0.42269,0.0299 -0.013,0.0334 -0.0181,0.0894 -0.0302,0.11985 -0.30451,0.76988 -0.93791,2.17611 -1.11709,2.57678 -0.14184,-0.32995 -0.27035,-0.69591 -0.39249,-0.98876 0.28281,-0.009 0.60383,-0.06 0.60383,-0.06 0,0 -1.04246,-2.29749 -1.4492,-3.32584 -0.014,-0.0354 -0.0151,-0.081 -0.0302,-0.11985 0.18923,0.0172 0.48306,-0.06 0.48306,-0.06 0,0 -0.64788,-1.41555 -0.90575,-2.06742 -0.25382,-0.64173 -0.81518,-2.21723 -0.81518,-2.21723 0,0 -0.53115,1.57547 -0.78498,2.21723 -0.25786,0.65194 -0.90575,2.06742 -0.90575,2.06742 0,0 0.32483,0.08 0.51326,0.06 -0.0151,0.0388 -0.0464,0.0844 -0.0604,0.11985 -0.40675,1.02837 -1.4492,3.32584 -1.4492,3.32584 0,0 0.35121,0.0512 0.63402,0.06 -0.6775,1.62442 -1.8115,4.13483 -1.8115,4.13483 0,0 0.8304,0.20519 1.23786,0.11985 -0.42495,1.01355 -0.65162,1.49898 -1.0869,2.48689 l -1.99266,0 c -0.42391,-0.95844 -0.74012,-1.64139 -1.20767,-2.75655 0.37505,0.0786 1.14729,-0.06 1.14729,-0.06 0,0 -1.037,-2.31007 -1.66055,-3.80524 0.26032,-0.008 0.54345,-0.06 0.54345,-0.06 0,0 -0.92386,-2.10964 -1.29824,-3.05618 -0.0129,-0.0326 -0.0465,-0.0841 -0.0604,-0.11985 0.17344,0.0185 0.45287,-0.06 0.45287,-0.06 0,0 -0.57782,-1.3176 -0.81517,-1.9176 -0.23364,-0.59067 -0.7548,-2.03746 -0.7548,-2.03746 0,0 -0.46077,1.44675 -0.69441,2.03746 -0.23734,0.60007 -0.87556,1.9176 -0.87556,1.9176 0,0 0.30963,0.0784 0.48307,0.06 -0.0139,0.0357 -0.0475,0.0872 -0.0604,0.11985 -0.37439,0.94655 -1.32843,3.05618 -1.32843,3.05618 0,0 0.31333,0.0513 0.57364,0.06 -0.62359,1.49517 -1.66055,3.80524 -1.66055,3.80524 0,0 0.77224,0.13854 1.14729,0.06 -0.46756,1.11516 -0.78376,1.79811 -1.20767,2.75655 l -4.16646,0 c -0.23997,-0.53677 -0.35323,-0.76268 -0.57364,-1.28839 0.23727,0.0498 0.7246,-0.06 0.7246,-0.06 0,0 -0.66224,-1.45112 -1.05671,-2.39701 0.16467,-0.005 0.3623,-0.06 0.3623,-0.06 0,0 -0.60852,-1.31879 -0.84537,-1.91761 -0.008,-0.0206 0.009,-0.0673 0,-0.0899 0.11015,0.0101 0.27173,-0.0299 0.27173,-0.0299 0,0 -0.39331,-0.81892 -0.54346,-1.1985 -0.1478,-0.37368 -0.45287,-1.28839 -0.45287,-1.28839 0,0 -0.30508,0.91469 -0.45288,1.28839 -0.15015,0.37962 -0.54345,1.1985 -0.54345,1.1985 0,0 0.19177,0.0402 0.30192,0.0299 -0.009,0.0226 -0.0225,0.0693 -0.0302,0.0899 -0.23686,0.59883 -0.84537,1.91761 -0.84537,1.91761 0,0 0.19762,0.0542 0.3623,0.06 -0.39452,0.94589 -1.05671,2.39701 -1.05671,2.39701 0,0 0.48733,0.10959 0.7246,0.06 -0.22042,0.52571 -0.3374,0.75162 -0.57365,1.28839 l -6.27989,0 -8.24235,-4.94382 -8.57445,4.94382 -3.3211,0 -5.91758,-3.38577 -5.88739,3.38577 -4.64953,0 0,-18.397 -2.02286,0 0,-3.685397 -10.44634,0 0,3.685397 -2.5663,0 0,18.397 -2.62668,0 0,-11.05618 -1.78132,0 0,-2.36704 -3.2909,0 0,2.36704 -4.46838,0 0,11.05618 -14.12975,0 -5.76662,-3.29588 -5.82701,3.29588 -3.04937,0 0,-11.05618 -4.46837,0 0,-2.36704 -3.29091,0 0,2.36704 -1.75112,0 0,11.05618 -2.62668,0 0,-18.397 -2.59649,0 0,-2.0075 -10.44636,0 0,2.0075 -2.02284,0 0,18.397 -4.64953,0 -5.88739,-3.38577 -5.88739,3.38577 -3.3211,0 -8.60466,-4.94382 -8.24234,4.94382 -6.27989,0 c -0.23624,-0.53677 -0.35323,-0.76268 -0.57364,-1.28839 0.23727,0.0497 0.7246,-0.06 0.7246,-0.06 0,0 -0.6622,-1.45112 -1.05671,-2.39701 0.16468,-0.006 0.3623,-0.06 0.3623,-0.06 0,0 -0.60851,-1.31878 -0.84537,-1.91761 -0.008,-0.0206 0.009,-0.0673 0,-0.0899 0.11015,0.0101 0.27173,-0.0299 0.27173,-0.0299 0,0 -0.3933,-0.81888 -0.54345,-1.1985 -0.14782,-0.3737 -0.45288,-1.28839 -0.45288,-1.28839 0,0 -0.30507,0.91471 -0.45288,1.28839 -0.15016,0.37958 -0.54345,1.1985 -0.54345,1.1985 0,0 0.19177,0.0402 0.30192,0.0299 -0.009,0.0226 -0.0222,0.0693 -0.0302,0.0899 -0.23685,0.59882 -0.84537,1.91761 -0.84537,1.91761 0,0 0.19762,0.0547 0.3623,0.06 -0.39447,0.94589 -1.02652,2.39701 -1.02652,2.39701 0,0 0.45714,0.10964 0.69441,0.06 -0.22041,0.52571 -0.33369,0.75162 -0.57364,1.28839 l -8.7858,0 0,-7.70037 -6.67238,0 0,7.70037 -1.32844,0 0,-6.20225 -6.70257,0 0,6.20225 -0.93595,0 0,-7.5206 -6.70257,0 0,7.5206 -1.32843,0 0,-5.99251 -6.70257,0 0,5.99251 -4.28723,0 c -0.42391,-0.95844 -0.74011,-1.64139 -1.20767,-2.75655 0.37505,0.0786 1.14728,-0.06 1.14728,-0.06 0,0 -1.03695,-2.31007 -1.66054,-3.80524 0.2603,-0.009 0.57364,-0.06 0.57364,-0.06 0,0 -0.95404,-2.10963 -1.32844,-3.05618 -0.0129,-0.0326 -0.0464,-0.0841 -0.0604,-0.11985 0.17344,0.0185 0.48307,-0.06 0.48307,-0.06 0,0 -0.60803,-1.31753 -0.84537,-1.9176 -0.23363,-0.59071 -0.7246,-2.03746 -0.7246,-2.03746 0,0 -0.52117,1.44679 -0.7548,2.03746 -0.23735,0.6 -0.81517,1.9176 -0.81517,1.9176 0,0 0.27943,0.0784 0.45287,0.06 -0.0138,0.0358 -0.0174,0.0872 -0.0302,0.11985 -0.37438,0.94654 -1.32844,3.05618 -1.32844,3.05618 0,0 0.28314,0.0516 0.54346,0.06 -0.62356,1.49517 -1.66055,3.80524 -1.66055,3.80524 0,0 0.77224,0.13851 1.14729,0.06 -0.46756,1.11516 -0.78377,1.79811 -1.20767,2.75655 l -1.99266,0 c -0.4348,-0.98687 -0.66289,-1.47559 -1.0869,-2.48689 0.40746,0.0853 1.23786,-0.11985 1.23786,-0.11985 0,0 -1.134,-2.51041 -1.81151,-4.13483 0.28282,-0.009 0.63403,-0.06 0.63403,-0.06 0,0 -1.04246,-2.29747 -1.44921,-3.32584 -0.014,-0.0354 -0.0151,-0.081 -0.0302,-0.11985 0.18843,0.02 0.48307,-0.06 0.48307,-0.06 0,0 -0.6479,-1.41549 -0.90576,-2.06742 -0.25382,-0.64176 -0.78498,-2.21723 -0.78498,-2.21723 0,0 -0.56135,1.5755 -0.81518,2.21723 -0.25787,0.65187 -0.90575,2.06742 -0.90575,2.06742 0,0 0.29384,0.0772 0.48306,0.06 -0.0151,0.0388 -0.0162,0.0844 -0.0302,0.11985 -0.40673,1.02835 -1.41901,3.32584 -1.41901,3.32584 0,0 0.32103,0.0511 0.60383,0.06 -0.12213,0.29285 -0.28083,0.65881 -0.42268,0.98876 -0.17917,-0.40067 -0.81257,-1.8069 -1.11709,-2.57678 -0.0121,-0.0305 -0.0173,-0.0864 -0.0302,-0.11985 0.16291,0.0147 0.42269,-0.0299 0.42269,-0.0299 0,0 -0.56303,-1.26654 -0.78499,-1.82771 -0.21848,-0.55242 -0.66422,-1.88765 -0.66422,-1.88765 0,0 -0.47592,1.33525 -0.69441,1.88765 -0.22197,0.5611 -0.78498,1.82771 -0.78498,1.82771 0,0 0.25979,0.0446 0.42268,0.0299 -0.013,0.0334 -0.0181,0.0893 -0.0302,0.11985 -0.35011,0.88517 -1.23786,2.84644 -1.23786,2.84644 0,0 0.26983,0.0522 0.51326,0.06 -0.58313,1.39824 -1.53978,3.56554 -1.53978,3.56554 0,0 0.70597,0.13343 1.05671,0.06 -0.30469,0.72672 -0.44813,1.03559 -0.78498,1.79775 l -5.73644,0 0,-36.883897 -7.6687,0 0,-3.745318 -4.10608,2.36704 0,1.378278 -2.53611,0 0,-6.382023 z m 24.9082,37.8427 c 0.0867,-0.003 0.15945,0.0108 0.24153,0 -0.045,0.10402 -0.0756,0.19582 -0.12077,0.29962 -0.038,-0.09 -0.0853,-0.21451 -0.12076,-0.29962 z m 256.50918,0 c 0.0821,0.0108 0.15487,-0.003 0.24153,0 -0.0354,0.0851 -0.0827,0.2096 -0.12077,0.29962 -0.0451,-0.1038 -0.0757,-0.1956 -0.12076,-0.29962 z"
       id="skyline"
       inkscape:connector-curvature="0" />
    <path
       class="wifi"
       d="m 162.3598,102.3599 c -2.59286,0 -4.92062,1.09085 -6.5625,2.84375 l 0.96875,0.9375 c 1.39921,-1.50499 3.38278,-2.4375 5.59375,-2.4375 2.24549,0 4.26249,0.95378 5.65625,2.5 l 0.96875,-0.96875 c -1.64408,-1.78143 -4.0081,-2.875 -6.625,-2.875 z m 0,2.78125 c -1.82308,0 -3.45575,0.7793 -4.59375,2.03125 l 0.96875,0.9375 c 0.89341,-1.00532 2.17627,-1.625 3.625,-1.625 1.48046,0 2.79296,0.64367 3.6875,1.6875 l 0.96875,-0.96875 c -1.13927,-1.27558 -2.81348,-2.0625 -4.65625,-2.0625 z m 0,2.84375 c -1.03114,0 -1.94191,0.45167 -2.5625,1.1875 l 0.9375,0.9375 c 0.3727,-0.48778 0.97064,-0.78125 1.625,-0.78125 0.69561,0 1.29856,0.33425 1.65625,0.875 l 0.96875,-0.96875 c -0.61125,-0.77505 -1.56222,-1.25 -2.625,-1.25 z"
       id="wifi10"
       inkscape:connector-curvature="0"
       inkscape:label="#rect7062" />
    <path
       inkscape:connector-curvature="0"
       id="wifi11"
       d="m 96.440266,86.829981 c -2.59286,0 -4.92062,1.090852 -6.5625,2.843754 l 0.96875,0.9375 c 1.39921,-1.50499 3.38278,-2.437504 5.59375,-2.437504 2.24549,0 4.262494,0.953784 5.656254,2.500004 l 0.96875,-0.96875 c -1.64408,-1.781431 -4.008104,-2.875004 -6.625004,-2.875004 z m 0,2.781254 c -1.82308,0 -3.45575,0.7793 -4.59375,2.03125 l 0.96875,0.9375 c 0.89341,-1.00532 2.17627,-1.625 3.625,-1.625 1.48046,0 2.79296,0.64367 3.687504,1.6875 l 0.96875,-0.96875 c -1.139274,-1.27558 -2.813484,-2.0625 -4.656254,-2.0625 z m 0,2.84375 c -1.03114,0 -1.94191,0.45167 -2.5625,1.1875 l 0.9375,0.9375 c 0.3727,-0.48778 0.97064,-0.78125 1.625,-0.78125 0.69561,0 1.29856,0.33425 1.65625,0.875 l 0.96875,-0.96875 c -0.61125,-0.77505 -1.56222,-1.25 -2.625,-1.25 z"
       class="wifi"
       inkscape:label="#path7067" />
    <path
       class="wifi"
       d="m 260.49565,103.8468 c -2.59286,0 -4.92062,1.09086 -6.5625,2.84376 l 0.96875,0.9375 c 1.39921,-1.50499 3.38278,-2.43751 5.59375,-2.43751 2.24549,0 4.26249,0.95379 5.65625,2.50001 l 0.96875,-0.96875 c -1.64408,-1.78143 -4.0081,-2.87501 -6.625,-2.87501 z m 0,2.78126 c -1.82308,0 -3.45575,0.7793 -4.59375,2.03125 l 0.96875,0.9375 c 0.89341,-1.00532 2.17627,-1.625 3.625,-1.625 1.48046,0 2.79296,0.64367 3.6875,1.6875 l 0.96875,-0.96875 c -1.13927,-1.27558 -2.81348,-2.0625 -4.65625,-2.0625 z m 0,2.84375 c -1.03114,0 -1.94191,0.45167 -2.5625,1.1875 l 0.9375,0.9375 c 0.3727,-0.48778 0.97064,-0.78125 1.625,-0.78125 0.69561,0 1.29856,0.33425 1.65625,0.875 l 0.96875,-0.96875 c -0.61125,-0.77505 -1.56222,-1.25 -2.625,-1.25 z"
       id="wifi8"
       inkscape:connector-curvature="0"
       inkscape:label="#path7069" />
    <path
       inkscape:connector-curvature="0"
       id="wifi7"
       d="m 314.51993,106.15977 c -2.59286,0 -4.92062,1.09086 -6.5625,2.84376 l 0.96875,0.9375 c 1.39921,-1.50499 3.38278,-2.43751 5.59375,-2.43751 2.24549,0 4.26249,0.95379 5.65625,2.50001 l 0.96875,-0.96875 c -1.64408,-1.78143 -4.0081,-2.87501 -6.625,-2.87501 z m 0,2.78126 c -1.82308,0 -3.45575,0.7793 -4.59375,2.03125 l 0.96875,0.9375 c 0.89341,-1.00532 2.17627,-1.625 3.625,-1.625 1.48046,0 2.79296,0.64367 3.6875,1.6875 l 0.96875,-0.96875 c -1.13927,-1.27558 -2.81348,-2.0625 -4.65625,-2.0625 z m 0,2.84375 c -1.03114,0 -1.94191,0.45167 -2.5625,1.1875 l 0.9375,0.9375 c 0.3727,-0.48778 0.97064,-0.78125 1.625,-0.78125 0.69561,0 1.29856,0.33425 1.65625,0.875 l 0.96875,-0.96875 c -0.61125,-0.77505 -1.56222,-1.25 -2.625,-1.25 z"
       class="wifi"
       inkscape:label="#path7071" />
    <path
       class="wifi"
       d="m 436.77671,107.31625 c -2.59286,0 -4.92062,1.09086 -6.5625,2.84376 l 0.96875,0.9375 c 1.39921,-1.50499 3.38278,-2.43751 5.59375,-2.43751 2.24549,0 4.26249,0.95379 5.65625,2.50001 l 0.96875,-0.96875 c -1.64408,-1.78143 -4.0081,-2.87501 -6.625,-2.87501 z m 0,2.78126 c -1.82308,0 -3.45575,0.7793 -4.59375,2.03125 l 0.96875,0.9375 c 0.89341,-1.00532 2.17627,-1.625 3.625,-1.625 1.48046,0 2.79296,0.64367 3.6875,1.6875 l 0.96875,-0.96875 c -1.13927,-1.27558 -2.81348,-2.0625 -4.65625,-2.0625 z m 0,2.84375 c -1.03114,0 -1.94191,0.45167 -2.5625,1.1875 l 0.9375,0.9375 c 0.3727,-0.48778 0.97064,-0.78125 1.625,-0.78125 0.69561,0 1.29856,0.33425 1.65625,0.875 l 0.96875,-0.96875 c -0.61125,-0.77505 -1.56222,-1.25 -2.625,-1.25 z"
       id="wifi4"
       inkscape:connector-curvature="0"
       inkscape:label="#path7073" />
    <path
       inkscape:connector-curvature="0"
       id="wifi3"
       d="m 537.39074,94.92536 c -2.59286,0 -4.92062,1.09086 -6.5625,2.84376 l 0.96875,0.9375 c 1.39921,-1.50499 3.38278,-2.43751 5.59375,-2.43751 2.24549,0 4.26249,0.95379 5.65625,2.50001 l 0.96875,-0.96875 c -1.64408,-1.78143 -4.0081,-2.87501 -6.625,-2.87501 z m 0,2.78126 c -1.82308,0 -3.45575,0.7793 -4.59375,2.03125 l 0.96875,0.9375 c 0.89341,-1.00532 2.17627,-1.625 3.625,-1.625 1.48046,0 2.79296,0.64367 3.6875,1.6875 l 0.96875,-0.96875 c -1.13927,-1.27558 -2.81348,-2.0625 -4.65625,-2.0625 z m 0,2.84375 c -1.03114,0 -1.94191,0.45167 -2.5625,1.1875 l 0.9375,0.9375 c 0.3727,-0.48778 0.97064,-0.78125 1.625,-0.78125 0.69561,0 1.29856,0.33425 1.65625,0.875 l 0.96875,-0.96875 c -0.61125,-0.77505 -1.56222,-1.25 -2.625,-1.25 z"
       class="wifi"
       inkscape:label="#path7075" />
    <path
       class="wifi"
       d="m 605.29282,97.56875 c -2.59286,0 -4.92062,1.09086 -6.5625,2.84376 l 0.96875,0.9375 c 1.39921,-1.50499 3.38278,-2.43751 5.59375,-2.43751 2.24549,0 4.26249,0.95379 5.65625,2.50001 l 0.96875,-0.96875 c -1.64408,-1.78143 -4.0081,-2.87501 -6.625,-2.87501 z m 0,2.78126 c -1.82308,0 -3.45575,0.7793 -4.59375,2.03125 l 0.96875,0.9375 c 0.89341,-1.00532 2.17627,-1.625 3.625,-1.625 1.48046,0 2.79296,0.64367 3.6875,1.6875 l 0.96875,-0.96875 c -1.13927,-1.27558 -2.81348,-2.0625 -4.65625,-2.0625 z m 0,2.84375 c -1.03114,0 -1.94191,0.45167 -2.5625,1.1875 l 0.9375,0.9375 c 0.3727,-0.48778 0.97064,-0.78125 1.625,-0.78125 0.69561,0 1.29856,0.33425 1.65625,0.875 l 0.96875,-0.96875 c -0.61125,-0.77505 -1.56222,-1.25 -2.625,-1.25 z"
       id="wifi2"
       inkscape:connector-curvature="0"
       inkscape:label="#path7077" />
    <path
       inkscape:connector-curvature="0"
       id="wifi1"
       d="m 685.42057,102.02947 c -2.59286,0 -4.92062,1.09086 -6.5625,2.84376 l 0.96875,0.9375 c 1.39921,-1.50499 3.38278,-2.43751 5.59375,-2.43751 2.24549,0 4.26249,0.95379 5.65625,2.50001 l 0.96875,-0.96875 c -1.64408,-1.78143 -4.0081,-2.87501 -6.625,-2.87501 z m 0,2.78126 c -1.82308,0 -3.45575,0.7793 -4.59375,2.03125 l 0.96875,0.9375 c 0.89341,-1.00532 2.17627,-1.625 3.625,-1.625 1.48046,0 2.79296,0.64367 3.6875,1.6875 l 0.96875,-0.96875 c -1.13927,-1.27558 -2.81348,-2.0625 -4.65625,-2.0625 z m 0,2.84375 c -1.03114,0 -1.94191,0.45167 -2.5625,1.1875 l 0.9375,0.9375 c 0.3727,-0.48778 0.97064,-0.78125 1.625,-0.78125 0.69561,0 1.29856,0.33425 1.65625,0.875 l 0.96875,-0.96875 c -0.61125,-0.77505 -1.56222,-1.25 -2.625,-1.25 z"
       class="wifi"
       inkscape:label="#path7079" />
    <path
       inkscape:connector-curvature="0"
       id="path7081"
       d="m 210.93209,66.839345 c -2.59286,0 -4.92062,1.090857 -6.5625,2.843757 l 0.96875,0.9375 c 1.39921,-1.50499 3.38278,-2.43751 5.59375,-2.43751 2.24549,0 4.26249,0.95379 5.65625,2.50001 l 0.96875,-0.96875 c -1.64408,-1.78143 -4.0081,-2.875007 -6.625,-2.875007 z m 0,2.781257 c -1.82308,0 -3.45575,0.7793 -4.59375,2.03125 l 0.96875,0.9375 c 0.89341,-1.00532 2.17627,-1.625 3.625,-1.625 1.48046,0 2.79296,0.64367 3.6875,1.6875 l 0.96875,-0.96875 c -1.13927,-1.27558 -2.81348,-2.0625 -4.65625,-2.0625 z m 0,2.84375 c -1.03114,0 -1.94191,0.45167 -2.5625,1.1875 l 0.9375,0.9375 c 0.3727,-0.48778 0.97064,-0.78125 1.625,-0.78125 0.69561,0 1.29856,0.33425 1.65625,0.875 l 0.96875,-0.96875 c -0.61125,-0.77505 -1.56222,-1.25 -2.625,-1.25 z"
       class="wifi" />
    <path
       class="wifi"
       d="m 190.44582,93.273243 c -2.59286,0 -4.92062,1.090857 -6.5625,2.843757 l 0.96875,0.9375 c 1.39921,-1.50499 3.38278,-2.43751 5.59375,-2.43751 2.24549,0 4.26249,0.95379 5.65625,2.50001 l 0.96875,-0.96875 c -1.64408,-1.78143 -4.0081,-2.875007 -6.625,-2.875007 z m 0,2.781257 c -1.82308,0 -3.45575,0.7793 -4.59375,2.03125 l 0.96875,0.9375 c 0.89341,-1.00532 2.17627,-1.625 3.625,-1.625 1.48046,0 2.79296,0.64367 3.6875,1.6875 l 0.96875,-0.96875 c -1.13927,-1.27558 -2.81348,-2.0625 -4.65625,-2.0625 z m 0,2.84375 c -1.03114,0 -1.94191,0.45167 -2.5625,1.1875 l 0.9375,0.9375 c 0.3727,-0.48778 0.97064,-0.78125 1.625,-0.78125 0.69561,0 1.29856,0.33425 1.65625,0.875 l 0.96875,-0.96875 c -0.61125,-0.77505 -1.56222,-1.25 -2.625,-1.25 z"
       id="wifi9"
       inkscape:connector-curvature="0"
       inkscape:label="#path7083" />
    <path
       inkscape:connector-curvature="0"
       id="wifi13"
       d="m 15.982091,105.1685 c -2.59286,0 -4.92062,1.09085 -6.5625003,2.84375 l 0.9687503,0.9375 c 1.39921,-1.50499 3.38278,-2.43751 5.59375,-2.43751 2.24549,0 4.26249,0.95379 5.65625,2.50001 l 0.96875,-0.96875 c -1.64408,-1.78143 -4.0081,-2.875 -6.625,-2.875 z m 0,2.78125 c -1.82308,0 -3.45575,0.7793 -4.59375,2.03125 l 0.96875,0.9375 c 0.89341,-1.00532 2.17627,-1.625 3.625,-1.625 1.48046,0 2.79296,0.64367 3.6875,1.6875 l 0.96875,-0.96875 c -1.13927,-1.27558 -2.81348,-2.0625 -4.65625,-2.0625 z m 0,2.84375 c -1.03114,0 -1.94191,0.45167 -2.5625,1.1875 l 0.9375,0.9375 c 0.3727,-0.48778 0.97064,-0.78125 1.625,-0.78125 0.69561,0 1.29856,0.33425 1.65625,0.875 l 0.96875,-0.96875 c -0.61125,-0.77505 -1.56222,-1.25 -2.625,-1.25 z"
       class="wifi"
       inkscape:label="#path7085" />
    <path
       class="wifi"
       d="m 61.910989,103.84681 c -2.59286,0 -4.92062,1.09085 -6.5625,2.84375 l 0.96875,0.9375 c 1.39921,-1.50499 3.38278,-2.43751 5.59375,-2.43751 2.24549,0 4.26249,0.95379 5.65625,2.50001 l 0.96875,-0.96875 c -1.64408,-1.78143 -4.0081,-2.875 -6.625,-2.875 z m 0,2.78125 c -1.82308,0 -3.45575,0.7793 -4.59375,2.03125 l 0.96875,0.9375 c 0.89341,-1.00532 2.17627,-1.625 3.625,-1.625 1.48046,0 2.79296,0.64367 3.6875,1.6875 l 0.96875,-0.96875 c -1.13927,-1.27558 -2.81348,-2.0625 -4.65625,-2.0625 z m 0,2.84375 c -1.03114,0 -1.94191,0.45167 -2.5625,1.1875 l 0.9375,0.9375 c 0.3727,-0.48778 0.97064,-0.78125 1.625,-0.78125 0.69561,0 1.29856,0.33425 1.65625,0.875 l 0.96875,-0.96875 c -0.61125,-0.77505 -1.56222,-1.25 -2.625,-1.25 z"
       id="wifi12"
       inkscape:connector-curvature="0"
       inkscape:label="#path7087" />
    <path
       class="wifi"
       d="m 419.09904,86.499555 c -2.59286,0 -4.92062,1.09086 -6.5625,2.84376 l 0.96875,0.9375 c 1.39921,-1.50499 3.38278,-2.43751 5.59375,-2.43751 2.24549,0 4.26249,0.95379 5.65625,2.50001 l 0.96875,-0.96875 c -1.64408,-1.78143 -4.0081,-2.87501 -6.625,-2.87501 z m 0,2.78126 c -1.82308,0 -3.45575,0.7793 -4.59375,2.03125 l 0.96875,0.9375 c 0.89341,-1.00532 2.17627,-1.625 3.625,-1.625 1.48046,0 2.79296,0.64367 3.6875,1.6875 l 0.96875,-0.96875 c -1.13927,-1.27558 -2.81348,-2.0625 -4.65625,-2.0625 z m 0,2.84375 c -1.03114,0 -1.94191,0.45167 -2.5625,1.1875 l 0.9375,0.9375 c 0.3727,-0.48778 0.97064,-0.78125 1.625,-0.78125 0.69561,0 1.29856,0.33425 1.65625,0.875 l 0.96875,-0.96875 c -0.61125,-0.77505 -1.56222,-1.25 -2.625,-1.25 z"
       id="wifi5"
       inkscape:connector-curvature="0"
       inkscape:label="#path7089" />
    <path
       class="wifi"
       d="m 367.0573,96.247058 c -2.59286,0 -4.92062,1.09086 -6.5625,2.843762 l 0.96875,0.9375 c 1.39921,-1.50499 3.38278,-2.437512 5.59375,-2.437512 2.24549,0 4.26249,0.953792 5.65625,2.500012 l 0.96875,-0.96875 c -1.64408,-1.781432 -4.0081,-2.875012 -6.625,-2.875012 z m 0,2.781262 c -1.82308,0 -3.45575,0.7793 -4.59375,2.03125 l 0.96875,0.9375 c 0.89341,-1.00532 2.17627,-1.625 3.625,-1.625 1.48046,0 2.79296,0.64367 3.6875,1.6875 l 0.96875,-0.96875 c -1.13927,-1.27558 -2.81348,-2.0625 -4.65625,-2.0625 z m 0,2.84375 c -1.03114,0 -1.94191,0.45167 -2.5625,1.1875 l 0.9375,0.9375 c 0.3727,-0.48778 0.97064,-0.78125 1.625,-0.78125 0.69561,0 1.29856,0.33425 1.65625,0.875 l 0.96875,-0.96875 c -0.61125,-0.77505 -1.56222,-1.25 -2.625,-1.25 z"
       id="wifi6"
       inkscape:connector-curvature="0"
       inkscape:label="#path7091" />
    <path
       inkscape:label="#path7075"
       class="wifi"
       d="m 506.99176,72.78697 c -2.59286,0 -4.92062,1.09086 -6.5625,2.84376 l 0.96875,0.9375 c 1.39921,-1.50499 3.38278,-2.43751 5.59375,-2.43751 2.24549,0 4.26249,0.95379 5.65625,2.50001 l 0.96875,-0.96875 c -1.64408,-1.78143 -4.0081,-2.87501 -6.625,-2.87501 z m 0,2.78126 c -1.82308,0 -3.45575,0.7793 -4.59375,2.03125 l 0.96875,0.9375 c 0.89341,-1.00532 2.17627,-1.625 3.625,-1.625 1.48046,0 2.79296,0.64367 3.6875,1.6875 l 0.96875,-0.96875 c -1.13927,-1.27558 -2.81348,-2.0625 -4.65625,-2.0625 z m 0,2.84375 c -1.03114,0 -1.94191,0.45167 -2.5625,1.1875 l 0.9375,0.9375 c 0.3727,-0.48778 0.97064,-0.78125 1.625,-0.78125 0.69561,0 1.29856,0.33425 1.65625,0.875 l 0.96875,-0.96875 c -0.61125,-0.77505 -1.56222,-1.25 -2.625,-1.25 z"
       id="wifi15"
       inkscape:connector-curvature="0" />
    <path
       inkscape:connector-curvature="0"
       id="wifi14"
       d="m 567.12888,91.290699 c -2.59286,0 -4.92062,1.09086 -6.5625,2.84376 l 0.96875,0.9375 c 1.39921,-1.50499 3.38278,-2.43751 5.59375,-2.43751 2.24549,0 4.26249,0.95379 5.65625,2.50001 l 0.96875,-0.96875 c -1.64408,-1.78143 -4.0081,-2.87501 -6.625,-2.87501 z m 0,2.78126 c -1.82308,0 -3.45575,0.7793 -4.59375,2.03125 l 0.96875,0.9375 c 0.89341,-1.00532 2.17627,-1.625 3.625,-1.625 1.48046,0 2.79296,0.64367 3.6875,1.6875 l 0.96875,-0.96875 c -1.13927,-1.27558 -2.81348,-2.0625 -4.65625,-2.0625 z m 0,2.84375 c -1.03114,0 -1.94191,0.45167 -2.5625,1.187501 l 0.9375,0.9375 c 0.3727,-0.48778 0.97064,-0.78125 1.625,-0.78125 0.69561,0 1.29856,0.33425 1.65625,0.875 l 0.96875,-0.96875 c -0.61125,-0.775051 -1.56222,-1.250001 -2.625,-1.250001 z"
       class="wifi"
       inkscape:label="#path7075" />
  </g>
</svg>
